<?xml version="1.0" encoding="UTF-8" standalone="no"?>
<!-- Created with Inkscape (http://www.inkscape.org/) -->

<svg
   width="30.930641"
   height="31.066872"
   viewBox="0 0 30.930641 31.066872"
   version="1.1"
   id="svg1"
   xmlns="http://www.w3.org/2000/svg"
   xmlns:svg="http://www.w3.org/2000/svg">
  <defs
     id="defs1">
    <clipPath
       clipPathUnits="userSpaceOnUse"
       id="clipPath8">
      <path
         id="path9"
         style="fill:#d45500;stroke:#000000;stroke-width:0.25;stroke-linecap:round;stroke-dasharray:none"
         d="m 10.118679,3.8660611 c -0.6684085,0 -1.2070315,0.538623 -1.2070315,1.2070313 V 16.53403 H 8.7300068 C 8.5329766,15.897637 7.9425742,15.438327 7.2397725,15.438327 H 4.2495381 c -0.865268,0 -1.5605469,0.697232 -1.5605469,1.5625 v 9.761719 c 0,0.865268 0.6952789,1.5625 1.5605469,1.5625 h 2.2246094 c 0.041735,0.630023 0.5621756,1.125 1.203125,1.125 H 26.927273 c 0.668408,0 1.207031,-0.538623 1.207031,-1.207031 V 17.881687 c 0.01706,-0.08228 0.02539,-0.168323 0.02539,-0.25586 v -5.664062 c 0,-0.686785 -0.551496,-1.240235 -1.238281,-1.240235 h -1.19336 c -0.559757,0 -1.030531,0.367293 -1.185547,0.875 -9.25e-4,-0.667608 -0.539198,-1.203125 -1.207031,-1.203125 h -2.414062 c -0.66841,0 -1.205079,0.536671 -1.205079,1.205078 v -0.21875 c 0,-0.668407 -0.538623,-1.207031 -1.207031,-1.207031 h -2.824219 c -0.54216,0 -0.999265,0.355269 -1.152343,0.845703 V 5.0730924 c 0,-0.6684083 -0.538623,-1.2070313 -1.207032,-1.2070313 z" />
    </clipPath>
  </defs>
  <g
     id="layer1"
     transform="translate(-0.45259431,-0.28604802)">
    <g
       id="g9"
       transform="matrix(1.2025582,0,0,1.2025582,-2.8286045,-5.531797)">
      <path
         id="rect2"
         style="fill:#d45500;stroke:#000000;stroke-width:0.25;stroke-linecap:round;stroke-dasharray:none"
         d="m 10.283203,4.9628906 c -0.6684081,0 -1.2070311,0.538623 -1.2070311,1.2070313 V 17.630859 H 8.8945312 C 8.697501,16.994466 8.1070986,16.535156 7.4042969,16.535156 H 4.4140625 c -0.865268,0 -1.5605469,0.697232 -1.5605469,1.5625 v 9.761719 c 0,0.865268 0.6952789,1.5625 1.5605469,1.5625 h 2.2246094 c 0.041735,0.630023 0.5621756,1.125 1.203125,1.125 H 27.091797 c 0.668408,0 1.207031,-0.538623 1.207031,-1.207031 V 18.978516 c 0.01706,-0.08228 0.02539,-0.168323 0.02539,-0.25586 v -5.664062 c 0,-0.686785 -0.551496,-1.240235 -1.238281,-1.240235 h -1.19336 c -0.559757,0 -1.030531,0.367293 -1.185547,0.875 C 24.706106,12.025751 24.167833,11.490234 23.5,11.490234 h -2.414062 c -0.66841,0 -1.205079,0.536671 -1.205079,1.205078 v -0.21875 c 0,-0.668407 -0.538623,-1.207031 -1.207031,-1.207031 h -2.824219 c -0.54216,0 -0.999265,0.355269 -1.152343,0.845703 V 6.1699219 c 0,-0.6684083 -0.538623,-1.2070313 -1.207032,-1.2070313 z" />
      <path
         id="path7"
         style="fill:#ff6600;stroke:#000000;stroke-width:0.25;stroke-linecap:round;stroke-dasharray:none"
         d="m 10.283203,4.9628906 c -0.6684081,0 -1.2070311,0.538623 -1.2070311,1.2070313 V 17.630859 H 8.8945312 C 8.697501,16.994466 8.1070986,16.535156 7.4042969,16.535156 H 4.4140625 c -0.865268,0 -1.5605469,0.697232 -1.5605469,1.5625 v 9.761719 c 0,0.865268 0.6952789,1.5625 1.5605469,1.5625 h 2.2246094 c 0.041735,0.630023 0.5621756,1.125 1.203125,1.125 H 27.091797 c 0.668408,0 1.207031,-0.538623 1.207031,-1.207031 V 18.978516 c 0.01706,-0.08228 0.02539,-0.168323 0.02539,-0.25586 v -5.664062 c 0,-0.686785 -0.551496,-1.240235 -1.238281,-1.240235 h -1.19336 c -0.559757,0 -1.030531,0.367293 -1.185547,0.875 C 24.706106,12.025751 24.167833,11.490234 23.5,11.490234 h -2.414062 c -0.66841,0 -1.205079,0.536671 -1.205079,1.205078 v -0.21875 c 0,-0.668407 -0.538623,-1.207031 -1.207031,-1.207031 h -2.824219 c -0.54216,0 -0.999265,0.355269 -1.152343,0.845703 V 6.1699219 c 0,-0.6684083 -0.538623,-1.2070313 -1.207032,-1.2070313 z"
         clip-path="url(#clipPath8)" />
    </g>
  </g>
</svg>
